<?xml version="1.0" standalone="no"?>
<!DOCTYPE svg PUBLIC "-//W3C//DTD SVG 20010904//EN"
 "http://www.w3.org/TR/2001/REC-SVG-20010904/DTD/svg10.dtd">
<svg version="1.0" xmlns="http://www.w3.org/2000/svg"
 width="500.000000pt" height="500.000000pt" viewBox="0 0 500.000000 500.000000"
 preserveAspectRatio="xMidYMid meet">

<g transform="translate(0.000000,500.000000) scale(0.100000,-0.100000)"
fill="#000000" stroke="none">
<path fill="#ff5757" d="M1333 4779 c-595 -53 -1117 -498 -1269 -1081 -59 -229 -59 -506 0
-734 51 -196 154 -396 292 -564 29 -36 269 -281 533 -545 l481 -480 472 471
c260 260 483 477 495 483 12 6 44 11 72 11 39 0 56 -6 81 -26 59 -50 76 -122
44 -187 -9 -18 -226 -242 -482 -500 l-467 -467 460 -460 460 -460 1048 1047
c577 577 1078 1084 1113 1128 214 263 324 574 324 915 0 266 -61 499 -191 725
-314 547 -944 828 -1569 699 -186 -39 -413 -145 -577 -269 -27 -20 -283 -269
-571 -553 -288 -284 -533 -522 -545 -529 -12 -7 -43 -12 -68 -13 -114 -1 -187
126 -126 220 12 20 225 235 472 479 248 245 451 447 453 451 4 10 -120 82
-208 120 -168 74 -278 102 -465 120 -121 11 -128 11 -262 -1z m2524 -1095 c60
-46 80 -122 49 -182 -8 -15 -135 -147 -283 -294 l-269 -268 -52 0 c-83 0 -138
40 -156 113 -18 74 -9 86 263 361 141 142 270 267 286 277 45 29 120 25 162
-7z"/>
</g>
</svg>
